<svg version="1.1" id="Layer_1" xmlns="http://www.w3.org/2000/svg" xmlns:xlink="http://www.w3.org/1999/xlink" x="0px" y="0px"
	 width="100%" viewBox="0 0 1024 672" enable-background="new 0 0 1024 672" xml:space="preserve">
<path fill="#000000" opacity="1.000000" stroke="none" 
	d="
M546.650757,330.721252 
	C545.856812,329.720490 545.762329,328.497345 544.055786,328.300629 
	C541.194519,333.623871 540.353943,339.777649 538.641357,345.568848 
	C532.903809,364.970856 527.581299,384.495483 522.083313,403.968475 
	C518.401367,417.009399 510.701782,426.488220 496.918640,428.768890 
	C482.392120,431.172607 470.469543,425.793671 462.919617,412.978912 
	C451.595154,393.757446 440.822083,374.211029 429.818817,354.800385 
	C423.335266,343.362915 416.894989,331.902710 411.072418,320.106506 
	C410.428406,318.801727 409.858429,317.325836 408.301941,316.619141 
	C406.005463,316.776459 405.567200,318.860901 404.790833,320.373260 
	C389.046051,351.043915 371.433868,380.678223 354.703949,410.801666 
	C342.573975,432.642578 319.526672,433.159851 305.467712,422.196503 
	C300.148285,418.048340 296.805298,412.609100 294.923889,406.208832 
	C286.737946,378.362305 278.608307,350.499115 270.366852,322.669006 
	C264.199493,301.842896 257.924103,281.048553 251.618149,260.263947 
	C250.523178,256.654907 251.361450,254.764038 255.353882,254.769119 
	C270.018280,254.787735 284.682922,254.831268 299.346954,254.760086 
	C302.811279,254.743271 304.435974,256.461578 305.283813,259.586456 
	C311.145020,281.189362 317.164124,302.749969 322.916504,324.381622 
	C325.597412,334.463165 327.796265,344.672882 330.275543,355.084625 
	C333.081512,354.410248 333.444794,352.274231 334.306549,350.642578 
	C348.455688,323.852051 362.591736,297.054657 376.713501,270.249664 
	C381.003754,262.106232 387.084229,255.837677 396.041748,253.187027 
	C413.542694,248.008286 428.557831,253.761795 437.279846,269.991028 
	C451.305023,296.087982 465.838745,321.933472 478.383423,348.807709 
	C479.074341,350.287811 479.729553,351.823700 481.654419,353.120728 
	C484.966034,347.740692 485.724152,341.582092 487.475677,335.871063 
	C492.875092,318.265747 497.929871,300.553619 502.992950,282.847046 
	C504.362274,278.058258 505.468903,273.244568 507.720184,268.715057 
	C517.873596,248.286835 550.021973,244.334763 564.314209,269.443329 
	C580.862061,298.514496 597.530212,327.522980 613.171204,357.102234 
	C614.607483,359.818451 615.342285,362.992126 617.966736,365.281586 
	C620.302612,363.427673 621.037842,360.818512 622.259766,358.529816 
	C638.338989,328.410950 655.245239,298.754608 672.347473,269.210327 
	C679.811584,256.315979 691.423706,250.494568 705.922729,252.488327 
	C719.620605,254.371918 727.956970,263.337158 731.787781,276.501007 
	C739.720642,303.760712 747.590515,331.038910 755.581848,358.281433 
	C761.656250,378.989136 767.849792,399.662079 774.056274,420.330658 
	C775.461609,425.010651 774.862244,426.231445 770.122375,426.258026 
	C755.791687,426.338440 741.459717,426.220764 727.129456,426.336639 
	C723.661926,426.364685 721.874512,424.774628 721.039673,421.670532 
	C716.256409,403.886353 711.434753,386.112335 706.713440,368.311768 
	C703.445374,355.990479 700.335571,343.627319 697.107971,331.295197 
	C696.658325,329.577209 695.938293,327.929962 695.184631,325.801544 
	C691.695496,329.023102 690.537964,333.089355 688.656738,336.653717 
	C675.524231,361.535278 662.540649,386.495453 649.413147,411.379730 
	C642.562378,424.365967 631.875610,429.827026 617.032837,429.227234 
	C603.352112,428.674377 594.701050,422.008209 588.649048,410.567871 
	C574.638062,384.082367 559.889587,357.984863 546.650757,330.721252 
z"/>
</svg>