<svg width="613" height="613" viewBox="0 0 613 613" fill="none" xmlns="http://www.w3.org/2000/svg">
<rect width="613" height="613" rx="61" fill="white"/>
<path d="M337.799 296.927C337.05 295.982 336.961 294.827 335.351 294.642C332.651 299.666 331.858 305.475 330.242 310.941C324.828 329.255 319.806 347.684 314.618 366.064C311.144 378.374 303.879 387.321 290.873 389.473C277.167 391.742 265.917 386.665 258.793 374.569C248.108 356.426 237.943 337.976 227.56 319.655C221.443 308.859 215.366 298.042 209.872 286.907C209.264 285.676 208.726 284.283 207.258 283.616C205.091 283.764 204.677 285.732 203.945 287.159C189.088 316.109 172.47 344.081 156.684 372.514C145.239 393.13 123.492 393.618 110.226 383.27C105.207 379.354 102.053 374.22 100.278 368.179C92.5536 341.895 84.8828 315.595 77.1064 289.326C71.2871 269.668 65.3658 250.041 59.4157 230.422C58.3825 227.016 59.1735 225.231 62.9406 225.236C76.7775 225.253 90.6146 225.294 104.451 225.227C107.72 225.211 109.253 226.833 110.053 229.783C115.583 250.174 121.263 270.525 126.691 290.943C129.22 300.459 131.295 310.095 133.634 319.923C136.282 319.287 136.625 317.27 137.438 315.73C150.789 290.443 164.127 265.149 177.452 239.848C181.5 232.161 187.237 226.244 195.689 223.742C212.203 218.854 226.37 224.285 234.6 239.604C247.834 264.236 261.547 288.632 273.384 313.998C274.036 315.395 274.654 316.845 276.471 318.069C279.595 312.991 280.311 307.178 281.963 301.787C287.058 285.17 291.828 268.452 296.605 251.738C297.897 247.218 298.941 242.675 301.065 238.399C310.646 219.117 340.98 215.387 354.466 239.087C370.08 266.527 385.807 293.908 400.566 321.827C401.921 324.391 402.614 327.387 405.091 329.548C407.295 327.798 407.988 325.335 409.141 323.175C424.313 294.746 440.265 266.753 456.402 238.867C463.445 226.696 474.402 221.201 488.083 223.083C501.008 224.861 508.874 233.323 512.488 245.748C519.974 271.479 527.399 297.226 534.94 322.94C540.671 342.486 546.515 361.999 552.372 381.508C553.698 385.926 553.132 387.078 548.66 387.103C535.138 387.179 521.615 387.068 508.093 387.177C504.821 387.204 503.135 385.703 502.347 382.773C497.834 365.987 493.284 349.21 488.829 332.408C485.745 320.778 482.811 309.109 479.766 297.468C479.341 295.847 478.662 294.292 477.951 292.283C474.659 295.324 473.566 299.162 471.791 302.526C459.4 326.012 447.149 349.572 434.762 373.06C428.298 385.317 418.215 390.472 404.209 389.906C391.301 389.384 383.138 383.092 377.427 372.293C364.207 347.294 350.291 322.661 337.799 296.927Z" fill="black"/>
</svg>
